
<svg width="145px" height="145px" viewBox="-700 99 145 145" version="1.1" xmlns="http://www.w3.org/2000/svg" xmlns:xlink="http://www.w3.org/1999/xlink">
    <!-- Generator: Sketch 41.2 (35397) - http://www.bohemiancoding.com/sketch -->
    <desc>Created with Sketch.</desc>
    <defs></defs>
    <g id="Group" stroke="none" stroke-width="1" fill="none" fill-rule="evenodd" transform="translate(-627.875108, 171.124892) rotate(-315.000000) translate(627.875108, -171.124892) translate(-652.875108, 94.124892)">
        <path d="M17.7741261,146.296082 C15.923495,136.491395 16.877563,137.601062 13.977197,134.679011 C11.0768309,131.75696 11.073372,120.709969 10.9518748,103.547493 C10.8303777,86.3850174 10.9432273,77.5931636 10.9432273,77.5931636 C10.9432273,77.5931636 0.564085046,76.492385 0.0326971741,65.3743904 C-0.498690698,54.2563958 5.61853925,51.6837015 5.91817456,49.6611787 C6.21780987,47.638656 1.92779322,4.19470982 23.355393,0.0790959431 C23.7491052,0.00347536256 25.9231123,-0.0146371411 26.4111257,0.0790959431 C47.8387255,4.19470982 43.5487089,47.638656 43.8483442,49.6611787 C44.1479795,51.6837015 50.2652094,54.2563958 49.7338216,65.3743904 C49.2024337,76.492385 38.8232914,77.5931636 38.8232914,77.5931636 C38.8232914,77.5931636 38.9361411,86.3850174 38.8146439,103.547493 C38.6931468,120.709969 38.6896878,131.75696 35.7893218,134.679011 C32.8889558,137.601062 33.8430237,136.491395 31.9923927,146.296082 C30.5259108,154.065538 24.9443066,153.968936 24.8832594,153.955901 C24.8832594,153.955901 19.308069,154.422948 17.7741261,146.296082 Z M17.8277272,130.264589 C15.9023262,127.574972 15.9000299,117.406712 15.8193743,101.609423 C15.7387188,85.8121334 15.8136337,77.7196262 15.8136337,77.7196262 L34.321747,77.7196262 C34.321747,77.7196262 34.396662,85.8121334 34.3160064,101.609423 C34.2353508,117.406712 34.2330546,127.574972 32.3076536,130.264589 C30.3822526,132.954206 27.1987341,128.809626 24.8268673,142.006231 C22.4070923,128.76177 19.7531281,132.954206 17.8277272,130.264589 Z" id="Combined-Shape" fill="#FFFFFF"></path>
    </g>
</svg>